<svg width="20" height="13" viewBox="0 0 20 13" fill="none" xmlns="http://www.w3.org/2000/svg">
<path d="M8.07031 5.92189C8.07031 5.92189 9.96264 5.78323 9.96264 3.59293C9.96264 1.40248 8.41448 0.333496 6.4534 0.333496H0.000244141V12.5741H6.4534C6.4534 12.5741 10.3928 12.6969 10.3928 8.9612C10.3928 8.96124 10.5646 5.92189 8.07031 5.92189ZM5.9889 2.50912H6.4534C6.4534 2.50912 7.33057 2.50912 7.33057 3.78269C7.33057 5.05612 6.8147 5.24074 6.22956 5.24074H2.84359V2.50912H5.9889ZM6.27104 10.3985H2.84359V7.12737H6.4534C6.4534 7.12737 7.76078 7.11046 7.76078 8.8084C7.76078 10.2401 6.78429 10.3877 6.27104 10.3985ZM15.6467 3.44786C10.8776 3.44786 10.8818 8.15105 10.8818 8.15105C10.8818 8.15105 10.5546 12.8301 15.6467 12.8301C15.6467 12.8301 19.8901 13.0694 19.8901 9.57514H17.7078C17.7078 9.57514 17.7805 10.891 15.7195 10.891C15.7195 10.891 13.5368 11.0354 13.5368 8.76144H19.9628C19.9628 8.7614 20.666 3.44786 15.6467 3.44786ZM13.5129 7.12737C13.5129 7.12737 13.7793 5.2407 15.6952 5.2407C17.6106 5.2407 17.5866 7.12737 17.5866 7.12737H13.5129ZM18.095 2.56196H12.9786V1.05462H18.095V2.56196Z" fill="#4A60A1"/>
</svg>
