<svg width="90" height="33" viewBox="0 0 90 33" fill="none" xmlns="http://www.w3.org/2000/svg">
<rect width="89.6311" height="32.5437" rx="2.13592" fill="#4A60A1"/>
<path d="M14.5064 21.2717V10.3979H15.8232V15.2402H21.6211V10.3979H22.9379V21.2717H21.6211V16.4083H15.8232V21.2717H14.5064ZM28.7172 21.4416C27.981 21.4416 27.335 21.2664 26.7793 20.916C26.2271 20.5656 25.7952 20.0753 25.4838 19.4453C25.1758 18.8152 25.0218 18.079 25.0218 17.2365C25.0218 16.387 25.1758 15.6455 25.4838 15.0119C25.7952 14.3783 26.2271 13.8863 26.7793 13.5358C27.335 13.1854 27.981 13.0102 28.7172 13.0102C29.4535 13.0102 30.0977 13.1854 30.6499 13.5358C31.2056 13.8863 31.6374 14.3783 31.9454 15.0119C32.2569 15.6455 32.4126 16.387 32.4126 17.2365C32.4126 18.079 32.2569 18.8152 31.9454 19.4453C31.6374 20.0753 31.2056 20.5656 30.6499 20.916C30.0977 21.2664 29.4535 21.4416 28.7172 21.4416ZM28.7172 20.316C29.2765 20.316 29.7366 20.1727 30.0977 19.886C30.4587 19.5992 30.726 19.2223 30.8994 18.755C31.0729 18.2878 31.1596 17.7816 31.1596 17.2365C31.1596 16.6914 31.0729 16.1835 30.8994 15.7127C30.726 15.2419 30.4587 14.8614 30.0977 14.5712C29.7366 14.2809 29.2765 14.1358 28.7172 14.1358C28.158 14.1358 27.6978 14.2809 27.3368 14.5712C26.9757 14.8614 26.7085 15.2419 26.535 15.7127C26.3616 16.1835 26.2749 16.6914 26.2749 17.2365C26.2749 17.7816 26.3616 18.2878 26.535 18.755C26.7085 19.2223 26.9757 19.5992 27.3368 19.886C27.6978 20.1727 28.158 20.316 28.7172 20.316ZM37.8721 13.1164V14.1783H33.6457V13.1164H37.8721ZM34.8775 11.1625H36.1306V18.9356C36.1306 19.2895 36.1819 19.555 36.2845 19.732C36.3907 19.9054 36.5252 20.0222 36.6881 20.0824C36.8544 20.139 37.0296 20.1674 37.2137 20.1674C37.3517 20.1674 37.465 20.1603 37.5535 20.1461C37.642 20.1284 37.7128 20.1143 37.7659 20.1036L38.0207 21.2293C37.9358 21.2611 37.8172 21.293 37.665 21.3248C37.5128 21.3602 37.3199 21.3779 37.0863 21.3779C36.7323 21.3779 36.3854 21.3018 36.0456 21.1496C35.7093 20.9974 35.4297 20.7656 35.2067 20.4541C34.9873 20.1426 34.8775 19.7497 34.8775 19.2754V11.1625ZM47.2751 21.4416C46.5389 21.4416 45.8929 21.2664 45.3372 20.916C44.785 20.5656 44.3532 20.0753 44.0417 19.4453C43.7337 18.8152 43.5797 18.079 43.5797 17.2365C43.5797 16.387 43.7337 15.6455 44.0417 15.0119C44.3532 14.3783 44.785 13.8863 45.3372 13.5358C45.8929 13.1854 46.5389 13.0102 47.2751 13.0102C48.0114 13.0102 48.6556 13.1854 49.2078 13.5358C49.7635 13.8863 50.1953 14.3783 50.5033 15.0119C50.8148 15.6455 50.9705 16.387 50.9705 17.2365C50.9705 18.079 50.8148 18.8152 50.5033 19.4453C50.1953 20.0753 49.7635 20.5656 49.2078 20.916C48.6556 21.2664 48.0114 21.4416 47.2751 21.4416ZM47.2751 20.316C47.8344 20.316 48.2945 20.1727 48.6556 19.886C49.0166 19.5992 49.2839 19.2223 49.4573 18.755C49.6308 18.2878 49.7175 17.7816 49.7175 17.2365C49.7175 16.6914 49.6308 16.1835 49.4573 15.7127C49.2839 15.2419 49.0166 14.8614 48.6556 14.5712C48.2945 14.2809 47.8344 14.1358 47.2751 14.1358C46.7159 14.1358 46.2557 14.2809 45.8947 14.5712C45.5336 14.8614 45.2664 15.2419 45.0929 15.7127C44.9195 16.1835 44.8328 16.6914 44.8328 17.2365C44.8328 17.7816 44.9195 18.2878 45.0929 18.755C45.2664 19.2223 45.5336 19.5992 45.8947 19.886C46.2557 20.1727 46.7159 20.316 47.2751 20.316ZM56.5149 13.1164V14.1783H52.1187V13.1164H56.5149ZM53.4354 21.2717V11.9908C53.4354 11.5235 53.5452 11.1342 53.7646 10.8227C53.9841 10.5112 54.269 10.2776 54.6194 10.1218C54.9699 9.9661 55.3398 9.88823 55.7291 9.88823C56.0371 9.88823 56.2884 9.91301 56.4831 9.96257C56.6778 10.0121 56.8229 10.0581 56.9184 10.1006L56.5574 11.1837C56.4937 11.1625 56.4052 11.136 56.2919 11.1041C56.1822 11.0722 56.0371 11.0563 55.8566 11.0563C55.4424 11.0563 55.1433 11.1607 54.9593 11.3696C54.7787 11.5784 54.6885 11.8846 54.6885 12.2881V21.2717H53.4354ZM61.9027 13.1164V14.1783H57.5065V13.1164H61.9027ZM58.8232 21.2717V11.9908C58.8232 11.5235 58.9329 11.1342 59.1524 10.8227C59.3719 10.5112 59.6568 10.2776 60.0072 10.1218C60.3577 9.9661 60.7275 9.88823 61.1169 9.88823C61.4249 9.88823 61.6762 9.91301 61.8709 9.96257C62.0655 10.0121 62.2107 10.0581 62.3062 10.1006L61.9452 11.1837C61.8815 11.1625 61.793 11.136 61.6797 11.1041C61.57 11.0722 61.4249 11.0563 61.2443 11.0563C60.8302 11.0563 60.5311 11.1607 60.347 11.3696C60.1665 11.5784 60.0763 11.8846 60.0763 12.2881V21.2717H58.8232ZM66.7423 21.4416C65.9565 21.4416 65.2786 21.2682 64.7088 20.9213C64.1424 20.5709 63.7053 20.0824 63.3973 19.4559C63.0929 18.8258 62.9407 18.0931 62.9407 17.2578C62.9407 16.4224 63.0929 15.6862 63.3973 15.049C63.7053 14.4084 64.1336 13.9093 64.6822 13.5518C65.2344 13.1907 65.8786 13.0102 66.6149 13.0102C67.0396 13.0102 67.4591 13.081 67.8732 13.2226C68.2873 13.3642 68.6643 13.5942 69.0041 13.9128C69.3439 14.2278 69.6147 14.6455 69.8165 15.1658C70.0182 15.6862 70.1191 16.3268 70.1191 17.0879V17.6188H63.8327V16.5357H68.8448C68.8448 16.0755 68.7528 15.6649 68.5687 15.3039C68.3882 14.9428 68.1298 14.6579 67.7936 14.4491C67.4608 14.2402 67.0679 14.1358 66.6149 14.1358C66.1158 14.1358 65.6839 14.2597 65.3194 14.5075C64.9583 14.7517 64.6804 15.0703 64.4858 15.4632C64.2911 15.8561 64.1937 16.2773 64.1937 16.7268V17.4489C64.1937 18.0648 64.2999 18.5869 64.5123 19.0152C64.7282 19.44 65.0273 19.7638 65.4096 19.9868C65.7919 20.2063 66.2361 20.316 66.7423 20.316C67.0715 20.316 67.3688 20.27 67.6343 20.178C67.9033 20.0824 68.1351 19.9408 68.3298 19.7532C68.5245 19.5621 68.6749 19.3249 68.7811 19.0418L69.9917 19.3816C69.8643 19.7922 69.6501 20.1532 69.3492 20.4647C69.0484 20.7726 68.6767 21.0133 68.2342 21.1868C67.7918 21.3567 67.2945 21.4416 66.7423 21.4416ZM72.0252 21.2717V13.1164H73.2358V14.3482H73.3207C73.4694 13.9447 73.7384 13.6172 74.1278 13.3659C74.5171 13.1146 74.956 12.989 75.4445 12.989C75.5365 12.989 75.6516 12.9907 75.7896 12.9943C75.9277 12.9978 76.0321 13.0031 76.1029 13.0102V14.2845C76.0604 14.2739 75.9631 14.2579 75.8109 14.2367C75.6622 14.2119 75.5047 14.1995 75.3383 14.1995C74.9419 14.1995 74.5879 14.2827 74.2764 14.4491C73.9685 14.6119 73.7242 14.8384 73.5437 15.1287C73.3667 15.4154 73.2782 15.7428 73.2782 16.1109V21.2717H72.0252Z" fill="white"/>
</svg>
