<svg width="23" height="22" viewBox="0 0 23 22" fill="none" xmlns="http://www.w3.org/2000/svg">
<path d="M11.4848 18.5428C11.4848 18.5428 3.11987 13.8584 3.11987 8.17031C3.11987 7.16476 3.46827 6.19026 4.10578 5.41262C4.74329 4.63498 5.63054 4.10224 6.61656 3.90503C7.60259 3.70783 8.62649 3.85834 9.51406 4.33096C10.4016 4.80359 11.098 5.56913 11.4848 6.49733V6.49733C11.8715 5.56913 12.5679 4.80359 13.4555 4.33096C14.3431 3.85834 15.367 3.70783 16.353 3.90503C17.339 4.10224 18.2263 4.63498 18.8638 5.41262C19.5013 6.19026 19.8497 7.16476 19.8497 8.17031C19.8497 13.8584 11.4848 18.5428 11.4848 18.5428Z" stroke="#4A60A1" stroke-width="1.38209" stroke-linecap="round" stroke-linejoin="round"/>
</svg>
