<svg width="23" height="22" viewBox="0 0 23 22" fill="none" xmlns="http://www.w3.org/2000/svg">
<path d="M6.30299 13.8584C7.78133 13.8584 8.97976 12.66 8.97976 11.1816C8.97976 9.70331 7.78133 8.50488 6.30299 8.50488C4.82465 8.50488 3.62622 9.70331 3.62622 11.1816C3.62622 12.66 4.82465 13.8584 6.30299 13.8584Z" stroke="#4A60A1" stroke-width="1.38209" stroke-linecap="round" stroke-linejoin="round"/>
<path d="M15.6716 19.8811C17.15 19.8811 18.3484 18.6827 18.3484 17.2044C18.3484 15.726 17.15 14.5276 15.6716 14.5276C14.1933 14.5276 12.9949 15.726 12.9949 17.2044C12.9949 18.6827 14.1933 19.8811 15.6716 19.8811Z" stroke="#4A60A1" stroke-width="1.38209" stroke-linecap="round" stroke-linejoin="round"/>
<path d="M15.6716 7.83571C17.15 7.83571 18.3484 6.63728 18.3484 5.15895C18.3484 3.68061 17.15 2.48218 15.6716 2.48218C14.1933 2.48218 12.9949 3.68061 12.9949 5.15895C12.9949 6.63728 14.1933 7.83571 15.6716 7.83571Z" stroke="#4A60A1" stroke-width="1.38209" stroke-linecap="round" stroke-linejoin="round"/>
<path d="M13.4216 6.60596L8.55322 9.73443" stroke="#4A60A1" stroke-width="1.38209" stroke-linecap="round" stroke-linejoin="round"/>
<path d="M8.55322 12.6289L13.4216 15.7574" stroke="#4A60A1" stroke-width="1.38209" stroke-linecap="round" stroke-linejoin="round"/>
</svg>
